<mxfile host="Electron" modified="2024-05-02T17:23:23.382Z" agent="Mozilla/5.0 (Windows NT 10.0; Win64; x64) AppleWebKit/537.36 (KHTML, like Gecko) draw.io/24.2.5 Chrome/120.0.6099.109 Electron/28.1.0 Safari/537.36" etag="gurbzcbUjwI-Yv22h9cT" version="24.2.5" type="device">
  <diagram name="Page-1" id="UxBU0WumbK9WcygwTKIU">
    <mxGraphModel dx="1050" dy="621" grid="1" gridSize="10" guides="1" tooltips="1" connect="1" arrows="1" fold="1" page="1" pageScale="1" pageWidth="850" pageHeight="1100" math="0" shadow="0">
      <root>
        <mxCell id="0" />
        <mxCell id="1" parent="0" />
        <mxCell id="8sXZ7WeesaQS2s1mj0wV-1" value="&lt;b&gt;&lt;font style=&quot;font-size: 18px;&quot;&gt;Forget password page&lt;/font&gt;&lt;/b&gt;" style="text;strokeColor=none;align=center;fillColor=none;html=1;verticalAlign=middle;whiteSpace=wrap;rounded=0;" parent="1" vertex="1">
          <mxGeometry x="85" y="40" width="210" height="30" as="geometry" />
        </mxCell>
        <mxCell id="8sXZ7WeesaQS2s1mj0wV-2" value="" style="rounded=0;whiteSpace=wrap;html=1;" parent="1" vertex="1">
          <mxGeometry x="90" y="110" width="580" height="460" as="geometry" />
        </mxCell>
        <mxCell id="8sXZ7WeesaQS2s1mj0wV-3" value="&lt;b&gt;Email :&lt;/b&gt;" style="text;strokeColor=none;align=center;fillColor=none;html=1;verticalAlign=middle;whiteSpace=wrap;rounded=0;" parent="1" vertex="1">
          <mxGeometry x="160" y="200" width="60" height="30" as="geometry" />
        </mxCell>
        <mxCell id="8sXZ7WeesaQS2s1mj0wV-4" value="&lt;b&gt;Security Question :&lt;/b&gt;" style="text;strokeColor=none;align=center;fillColor=none;html=1;verticalAlign=middle;whiteSpace=wrap;rounded=0;" parent="1" vertex="1">
          <mxGeometry x="160" y="260" width="120" height="30" as="geometry" />
        </mxCell>
        <mxCell id="8sXZ7WeesaQS2s1mj0wV-5" value="&lt;b&gt;Answer :&amp;nbsp;&lt;/b&gt;" style="text;strokeColor=none;align=center;fillColor=none;html=1;verticalAlign=middle;whiteSpace=wrap;rounded=0;" parent="1" vertex="1">
          <mxGeometry x="160" y="305" width="70" height="30" as="geometry" />
        </mxCell>
        <mxCell id="8sXZ7WeesaQS2s1mj0wV-7" value="abc@gmail.com" style="rounded=1;whiteSpace=wrap;html=1;" parent="1" vertex="1">
          <mxGeometry x="305" y="205" width="120" height="20" as="geometry" />
        </mxCell>
        <mxCell id="8sXZ7WeesaQS2s1mj0wV-8" value="your pet name" style="rounded=1;whiteSpace=wrap;html=1;" parent="1" vertex="1">
          <mxGeometry x="305" y="260" width="165" height="20" as="geometry" />
        </mxCell>
        <mxCell id="8sXZ7WeesaQS2s1mj0wV-9" value="raju" style="rounded=1;whiteSpace=wrap;html=1;" parent="1" vertex="1">
          <mxGeometry x="305" y="315" width="120" height="20" as="geometry" />
        </mxCell>
        <mxCell id="8sXZ7WeesaQS2s1mj0wV-10" value="" style="strokeWidth=2;html=1;shape=mxgraph.flowchart.merge_or_storage;whiteSpace=wrap;" parent="1" vertex="1">
          <mxGeometry x="440" y="265" width="20" height="10" as="geometry" />
        </mxCell>
        <mxCell id="8sXZ7WeesaQS2s1mj0wV-11" value="Submit" style="rounded=1;whiteSpace=wrap;html=1;fillColor=#d5e8d4;strokeColor=#82b366;" parent="1" vertex="1">
          <mxGeometry x="315" y="400" width="100" height="30" as="geometry" />
        </mxCell>
        <mxCell id="8sXZ7WeesaQS2s1mj0wV-12" value="" style="html=1;shadow=0;dashed=0;align=center;verticalAlign=middle;shape=mxgraph.arrows2.arrow;dy=0.65;dx=37.2;direction=south;notch=0;" parent="1" vertex="1">
          <mxGeometry x="350" y="580" width="60" height="90" as="geometry" />
        </mxCell>
        <mxCell id="8sXZ7WeesaQS2s1mj0wV-13" value="" style="rounded=0;whiteSpace=wrap;html=1;" parent="1" vertex="1">
          <mxGeometry x="97.5" y="755" width="580" height="405" as="geometry" />
        </mxCell>
        <mxCell id="8sXZ7WeesaQS2s1mj0wV-15" value="&lt;b&gt;Old Password :&lt;/b&gt;" style="text;strokeColor=none;align=center;fillColor=none;html=1;verticalAlign=middle;whiteSpace=wrap;rounded=0;" parent="1" vertex="1">
          <mxGeometry x="125" y="830" width="120" height="30" as="geometry" />
        </mxCell>
        <mxCell id="8sXZ7WeesaQS2s1mj0wV-16" value="&lt;b&gt;&lt;font style=&quot;font-size: 18px;&quot;&gt;Login Page&lt;/font&gt;&lt;/b&gt;" style="text;strokeColor=none;align=center;fillColor=none;html=1;verticalAlign=middle;whiteSpace=wrap;rounded=0;" parent="1" vertex="1">
          <mxGeometry x="315" y="1300" width="150" height="40" as="geometry" />
        </mxCell>
        <mxCell id="8sXZ7WeesaQS2s1mj0wV-18" value="" style="rounded=1;whiteSpace=wrap;html=1;" parent="1" vertex="1">
          <mxGeometry x="307.5" y="835" width="157.5" height="20" as="geometry" />
        </mxCell>
        <mxCell id="8sXZ7WeesaQS2s1mj0wV-21" value="Change Password" style="rounded=1;whiteSpace=wrap;html=1;fillColor=#d5e8d4;strokeColor=#82b366;" parent="1" vertex="1">
          <mxGeometry x="300" y="1060" width="120" height="30" as="geometry" />
        </mxCell>
        <mxCell id="8sXZ7WeesaQS2s1mj0wV-22" value="&lt;b&gt;&lt;font style=&quot;font-size: 18px;&quot;&gt;Change Passsword Page&lt;/font&gt;&lt;/b&gt;" style="text;strokeColor=none;align=center;fillColor=none;html=1;verticalAlign=middle;whiteSpace=wrap;rounded=0;" parent="1" vertex="1">
          <mxGeometry x="90" y="710" width="240" height="30" as="geometry" />
        </mxCell>
        <mxCell id="8sXZ7WeesaQS2s1mj0wV-24" value="" style="rounded=1;whiteSpace=wrap;html=1;" parent="1" vertex="1">
          <mxGeometry x="307.5" y="910" width="157.5" height="20" as="geometry" />
        </mxCell>
        <mxCell id="8sXZ7WeesaQS2s1mj0wV-25" value="&lt;b&gt;New Password :&lt;/b&gt;" style="text;strokeColor=none;align=center;fillColor=none;html=1;verticalAlign=middle;whiteSpace=wrap;rounded=0;" parent="1" vertex="1">
          <mxGeometry x="130" y="870" width="110" height="30" as="geometry" />
        </mxCell>
        <mxCell id="8sXZ7WeesaQS2s1mj0wV-26" value="" style="rounded=1;whiteSpace=wrap;html=1;" parent="1" vertex="1">
          <mxGeometry x="307.5" y="875" width="157.5" height="20" as="geometry" />
        </mxCell>
        <mxCell id="8sXZ7WeesaQS2s1mj0wV-27" value="" style="html=1;shadow=0;dashed=0;align=center;verticalAlign=middle;shape=mxgraph.arrows2.arrow;dy=0.65;dx=37.2;direction=south;notch=0;" parent="1" vertex="1">
          <mxGeometry x="355" y="1180" width="60" height="90" as="geometry" />
        </mxCell>
        <mxCell id="8sXZ7WeesaQS2s1mj0wV-28" value="&lt;b&gt;Confrim New Password :&lt;/b&gt;" style="text;strokeColor=none;align=center;fillColor=none;html=1;verticalAlign=middle;whiteSpace=wrap;rounded=0;" parent="1" vertex="1">
          <mxGeometry x="135" y="910" width="150" height="30" as="geometry" />
        </mxCell>
      </root>
    </mxGraphModel>
  </diagram>
</mxfile>
